<?xml version="1.0" encoding="UTF-8" standalone="no"?>
<svg
   aria-hidden="true"
   focusable="false"
   data-prefix="fas"
   data-icon="arrow-rotate-right"
   class="svg-inline--fa fa-arrow-rotate-right"
   role="img"
   viewBox="0 0 512 512"
   version="1.1"
   id="svg4"
   sodipodi:docname="arrow-rotate-right-solid.svg"
   inkscape:export-filename="C:\Users\Dalk YouTube\Downloads\arrow-rotate-right-solid.png"
   inkscape:export-xdpi="96"
   inkscape:export-ydpi="96"
   inkscape:version="1.1 (c68e22c387, 2021-05-23)"
   xmlns:inkscape="http://www.inkscape.org/namespaces/inkscape"
   xmlns:sodipodi="http://sodipodi.sourceforge.net/DTD/sodipodi-0.dtd"
   xmlns="http://www.w3.org/2000/svg"
   xmlns:svg="http://www.w3.org/2000/svg">
  <defs
     id="defs8" />
  <sodipodi:namedview
     id="namedview6"
     pagecolor="#505050"
     bordercolor="#ffffff"
     borderopacity="1"
     inkscape:pageshadow="0"
     inkscape:pageopacity="0"
     inkscape:pagecheckerboard="1"
     showgrid="false"
     inkscape:zoom="0.8515625"
     inkscape:cx="21.137615"
     inkscape:cy="300.0367"
     inkscape:window-width="1920"
     inkscape:window-height="1057"
     inkscape:window-x="1912"
     inkscape:window-y="2152"
     inkscape:window-maximized="1"
     inkscape:current-layer="svg4" />
  <path
     fill="currentColor"
     d="M496 48V192c0 17.69-14.31 32-32 32H320c-17.69 0-32-14.31-32-32s14.31-32 32-32h63.39c-29.97-39.7-77.25-63.78-127.6-63.78C167.7 96.22 96 167.9 96 256s71.69 159.8 159.8 159.8c34.88 0 68.03-11.03 95.88-31.94c14.22-10.53 34.22-7.75 44.81 6.375c10.59 14.16 7.75 34.22-6.375 44.81c-39.03 29.28-85.36 44.86-134.2 44.86C132.5 479.9 32 379.4 32 256s100.5-223.9 223.9-223.9c69.15 0 134 32.47 176.1 86.12V48c0-17.69 14.31-32 32-32S496 30.31 496 48z"
     id="path2"
     style="fill:#ffffff" />
</svg>
